<svg id="Layer_1" data-name="Layer 1" xmlns="http://www.w3.org/2000/svg" viewBox="0 0 975.71 161.84"><defs><style>.cls-1,.cls-4{fill:#00354f;}.cls-2{fill:#059ad3;}.cls-3{fill:#f7d77f;}.cls-4{font-size:141.18px;font-family:Montserrat-Bold, Montserrat;font-weight:700;}.cls-5,.cls-6,.cls-7,.cls-8,.cls-9{fill:#089ad3;}.cls-5{letter-spacing:0.01em;}.cls-7{letter-spacing:-0.01em;}.cls-8{letter-spacing:-0.01em;}.cls-9{letter-spacing:0em;}</style></defs><polygon class="cls-1" points="119.05 131.15 106.35 140.15 85.06 109.52 97.76 100.53 119.05 131.15"/><path class="cls-2" d="M143.11,577.84l-4.59,3.41c-3,2.25-6.69,2.43-8.17.41l-22-30.19c-.24-.34,0-.91.46-1.28L122.57,540c.5-.37,1.1-.4,1.34-.07l22,30.19C147.41,572.12,146.15,575.59,143.11,577.84Z" transform="translate(-11.43 -421.22)"/><polygon class="cls-3" points="116.62 123.64 101.05 135.2 100.13 133.95 115.71 122.39 116.62 123.64"/><polygon class="cls-3" points="118.71 126.71 103.14 138.27 102.23 137.02 117.8 125.46 118.71 126.71"/><text class="cls-4" transform="translate(0 120)">O<tspan class="cls-5" x="119.16" y="0">n</tspan><tspan class="cls-6" x="217.56" y="0">eS</tspan><tspan class="cls-7" x="396.72" y="0">e</tspan><tspan class="cls-6" x="483.69" y="0">a</tspan><tspan class="cls-8" x="570.8" y="0">r</tspan><tspan class="cls-9" x="630.38" y="0">c</tspan><tspan class="cls-5" x="713.25" y="0">h</tspan><tspan class="cls-6" x="811.65" y="0">es</tspan></text></svg>