<svg id="Layer_1" data-name="Layer 1" xmlns="http://www.w3.org/2000/svg" viewBox="0 0 76.18 24.14"><defs><style>.cls-1{fill:#fff;}.cls-2{font-size:11px;font-family:Montserrat-Bold, Montserrat;font-weight:700;}.cls-10,.cls-2{fill:#00354f;}.cls-3,.cls-4,.cls-5,.cls-6,.cls-7,.cls-8,.cls-9{fill:#059ad3;}.cls-3{letter-spacing:0.01em;}.cls-5{letter-spacing:-0.02em;}.cls-6{letter-spacing:-0.01em;}.cls-7{letter-spacing:0em;}.cls-8{letter-spacing:0.01em;}.cls-9{letter-spacing:0em;}.cls-11{fill:#f7d77f;}</style></defs><circle class="cls-1" cx="12.07" cy="12.07" r="12.07"/><text class="cls-2" transform="translate(0.16 15.19)">O<tspan class="cls-3" x="9.28" y="0">n</tspan><tspan class="cls-4" x="16.95" y="0">eS</tspan><tspan class="cls-5" x="30.91" y="0">e</tspan><tspan class="cls-4" x="37.69" y="0">a</tspan><tspan class="cls-6" x="44.47" y="0">r</tspan><tspan class="cls-7" x="49.11" y="0">c</tspan><tspan class="cls-8" x="55.57" y="0">h</tspan><tspan class="cls-9" x="63.24" y="0">es</tspan></text><polygon class="cls-10" points="8.72 15.91 7.73 16.61 6.08 14.22 7.06 13.52 8.72 15.91"/><path class="cls-4" d="M21.54,35.82l-.36.27c-.24.17-.52.19-.64,0l-1.71-2.35a.07.07,0,0,1,0-.1l1.07-.8a.08.08,0,0,1,.11,0l1.71,2.35C21.87,35.38,21.77,35.65,21.54,35.82Z" transform="translate(-11.83 -17.93)"/><polygon class="cls-11" points="8.53 15.32 7.32 16.22 7.25 16.13 8.46 15.22 8.53 15.32"/><polygon class="cls-11" points="8.7 15.56 7.48 16.46 7.41 16.36 8.63 15.46 8.7 15.56"/></svg>